<?xml version="1.0" standalone="no"?>
<!DOCTYPE svg PUBLIC "-//W3C//DTD SVG 20010904//EN"
 "http://www.w3.org/TR/2001/REC-SVG-20010904/DTD/svg10.dtd">
<svg version="1.0" xmlns="http://www.w3.org/2000/svg"
 width="260.000000pt" height="260.000000pt" viewBox="0 0 260.000000 260.000000"
 preserveAspectRatio="xMidYMid meet">
<metadata>
Created by potrace 1.11, written by Peter Selinger 2001-2013
</metadata>
<g transform="translate(0.000000,260.000000) scale(0.100000,-0.100000)"
fill="#000000" stroke="none">
<path d="M1165 2516 c-14 -14 -33 -26 -41 -26 -8 0 -27 -12 -41 -26 -18 -18
-32 -24 -49 -20 -29 8 -54 -17 -54 -52 0 -34 -20 -90 -42 -122 -22 -31 -23
-73 -2 -91 16 -13 59 -97 53 -103 -2 -2 -30 -15 -63 -29 -150 -68 -295 -197
-401 -357 -34 -52 -72 -120 -83 -150 -19 -52 -22 -56 -75 -75 -77 -28 -96 -44
-113 -94 -13 -39 -14 -60 -3 -154 11 -98 14 -111 41 -137 51 -52 81 -53 267
-15 460 96 949 118 1388 63 98 -12 213 -22 255 -23 74 0 79 2 109 31 44 44 47
89 15 215 -44 171 -68 200 -184 220 -54 10 -61 14 -76 47 -57 119 -197 275
-320 357 -87 57 -208 112 -268 121 -38 7 -48 17 -27 29 17 11 27 49 18 72 -5
15 -3 25 7 33 18 16 18 44 -1 60 -8 7 -14 23 -13 35 2 22 -3 35 -36 105 -8 17
-22 27 -47 31 -19 3 -46 13 -59 22 -14 9 -32 17 -42 17 -9 0 -21 6 -25 14 -4
8 -20 17 -35 21 -21 5 -33 1 -53 -19z m101 -86 c10 0 28 -7 38 -15 11 -8 30
-15 43 -15 14 0 23 -6 23 -16 0 -8 5 -25 12 -37 6 -12 11 -44 10 -70 0 -27 3
-59 8 -73 8 -19 5 -29 -10 -44 -11 -11 -20 -24 -20 -30 0 -5 -11 -20 -24 -34
-32 -31 -94 -42 -121 -22 -11 9 -30 16 -43 16 -13 0 -31 7 -39 16 -11 10 -26
14 -45 10 -21 -4 -28 -2 -28 10 0 8 -7 17 -15 20 -8 4 -15 17 -15 30 0 14 -7
27 -15 30 -19 8 -20 24 -2 24 21 0 37 43 25 64 -7 12 -7 21 1 29 6 6 11 19 11
29 0 10 10 20 24 24 14 3 32 14 42 25 9 10 23 19 30 19 7 0 21 11 31 24 18 24
18 24 39 5 11 -10 29 -19 40 -19z m212 -518 c27 -64 53 -266 36 -281 -5 -5
-61 -12 -125 -16 l-116 -7 -11 84 c-7 45 -12 129 -12 185 0 115 5 123 74 123
24 0 42 7 54 21 17 20 17 20 47 -16 16 -20 40 -62 53 -93z m-384 103 c3 -9 0
-15 -9 -15 -9 0 -12 6 -9 15 4 8 7 15 9 15 2 0 5 -7 9 -15z m468 -11 c35 -15
73 -38 85 -52 60 -70 149 -310 124 -335 -5 -5 -52 -5 -105 -1 l-96 7 0 72 c0
95 -22 207 -54 272 -26 53 -30 63 -22 63 3 0 33 -12 68 -26z m-357 -4 c3 -5
-1 -10 -9 -10 -8 0 -18 5 -21 10 -3 6 1 10 9 10 8 0 18 -4 21 -10z m632 -180
c57 -57 112 -127 151 -193 l22 -38 -53 6 c-28 3 -70 8 -93 11 l-41 5 -6 75
c-4 54 -14 93 -36 140 -35 74 -27 74 56 -6z m-617 -195 c0 -17 -19 -22 -127
-30 -68 -5 -83 -4 -83 8 0 7 6 14 13 15 6 1 50 7 97 15 90 15 100 14 100 -8z
m-273 -38 c-3 -8 -27 -17 -59 -21 -29 -3 -70 -9 -90 -12 -27 -5 -38 -3 -38 6
0 8 8 10 25 6 14 -4 25 -2 25 3 0 5 24 12 53 15 29 4 59 11 67 16 18 11 24 6
17 -13z m788 -37 c184 -10 384 -33 443 -52 40 -12 53 -37 87 -171 41 -164 23
-179 -176 -148 -224 34 -417 44 -753 38 -268 -4 -558 -25 -584 -41 -4 -2 -63
-14 -132 -26 -69 -11 -148 -28 -177 -36 -47 -14 -54 -14 -77 1 -23 16 -41 43
-32 52 4 4 210 46 283 58 33 5 43 11 43 26 0 14 -7 19 -25 19 -40 0 -220 -29
-250 -40 -41 -16 -55 -12 -55 13 0 21 7 24 68 34 37 7 114 17 172 23 144 16
165 22 165 45 0 18 -6 20 -65 17 -67 -3 -111 -10 -260 -36 -46 -9 -88 -12 -92
-8 -17 17 12 63 47 78 91 38 588 126 810 144 255 20 341 22 560 10z"/>
<path d="M1992 1003 c0 -48 -7 -120 -15 -159 -51 -240 -255 -455 -498 -524
-337 -96 -689 60 -843 373 -51 103 -63 148 -72 271 l-7 86 -26 -7 c-42 -10
-44 -13 -38 -74 4 -48 2 -59 -10 -59 -22 0 -73 55 -73 79 0 18 -5 21 -31 19
-40 -3 -46 -20 -24 -68 19 -43 73 -86 127 -101 30 -8 36 -15 41 -44 3 -19 18
-61 32 -94 l27 -60 -19 -28 c-11 -15 -39 -64 -63 -108 -23 -44 -91 -168 -151
-275 -59 -108 -111 -204 -115 -213 -5 -14 0 -17 32 -17 l39 0 75 137 c41 75
92 168 113 207 21 39 46 85 56 101 10 17 30 52 45 78 l27 48 21 -28 c61 -81
160 -168 251 -221 108 -62 318 -109 432 -96 37 5 54 2 62 -7 13 -18 50 -121
61 -174 7 -37 11 -40 44 -43 l36 -3 -14 64 c-7 36 -22 89 -33 118 -12 29 -17
56 -13 60 4 4 32 14 62 24 148 47 312 170 394 298 10 15 21 27 25 27 3 0 22
-26 42 -58 47 -75 281 -458 305 -499 16 -28 24 -33 56 -33 21 0 38 2 38 5 0 4
-87 146 -119 195 -10 14 -39 61 -65 105 -26 44 -65 109 -88 145 -134 217 -132
212 -118 245 18 45 37 113 50 176 10 54 13 57 46 63 53 10 134 92 134 135 0
22 -66 -3 -96 -35 -18 -19 -41 -34 -52 -34 -17 0 -21 7 -24 43 -3 39 -5 42
-35 45 l-31 3 0 -88z"/>
<path d="M1096 1054 c-37 -37 -3 -98 50 -92 18 2 34 13 43 29 13 24 13 29 -2
53 -20 30 -66 35 -91 10z"/>
<path d="M1387 1052 c-22 -24 -21 -55 1 -75 38 -35 102 -9 102 41 0 48 -70 71
-103 34z"/>
<path d="M999 690 c-20 -23 -35 -30 -63 -30 -29 0 -36 -4 -36 -20 0 -17 7 -20
45 -20 25 0 45 -4 45 -9 0 -20 92 -109 142 -136 48 -27 61 -30 148 -30 86 0
100 3 148 29 29 16 79 55 111 87 44 44 66 58 92 61 46 4 55 38 10 38 -19 0
-43 11 -64 30 -37 32 -67 39 -67 15 0 -8 9 -23 21 -34 l21 -20 -46 -49 c-25
-27 -69 -62 -98 -78 -45 -25 -64 -29 -128 -29 -65 0 -82 4 -124 29 -50 29 -86
62 -113 103 -13 20 -13 25 1 45 37 52 -1 67 -45 18z"/>
<path d="M1762 194 c-19 -13 -31 -14 -66 -5 -52 13 -83 6 -118 -27 -32 -30
-37 -72 -13 -127 l14 -35 166 1 167 0 19 42 c23 51 23 60 4 101 -29 60 -121
87 -173 50z m126 -56 c20 -20 14 -65 -14 -98 -32 -37 -45 -32 -15 6 23 30 28
73 9 92 -7 7 -8 12 -2 12 6 0 15 -5 22 -12z"/>
<path d="M1260 117 c-29 -15 -70 -72 -70 -98 0 -17 9 -19 75 -19 54 0 75 4 75
13 0 20 -30 57 -46 57 -8 0 -14 5 -14 10 0 6 11 10 23 10 33 0 61 -33 55 -65
-4 -20 -1 -25 14 -25 47 0 27 89 -26 114 -41 19 -53 20 -86 3z"/>
</g>
</svg>
